<?xml version="1.0" encoding="utf-8"?>
<!-- Generator: Adobe Illustrator 27.5.0, SVG Export Plug-In . SVG Version: 6.00 Build 0)  -->
<svg version="1.1" id="Capa_2" xmlns="http://www.w3.org/2000/svg" xmlns:xlink="http://www.w3.org/1999/xlink" x="0px" y="0px"
	 viewBox="0 0 2122 2122" style="enable-background:new 0 0 2122 2122;" xml:space="preserve">
<path style="fill:#F08128;" d="M1732.359,211.118H388.962c-25.635,0-46.416,21.803-46.416,48.698v836.221
	c0,26.895,20.781,48.697,46.416,48.697h257.423c7.44,40.773,21.705,81.595,42.749,122.167
	c17.829,34.377,38.818,66.226,59.115,97.026c18.456,28.002,37.537,56.959,54.012,87.517l6.655,12.281
	c51.315,94.433,115.179,211.958,42.811,436.698c-1.267,3.937,0.894,8.151,4.828,9.418c0.762,0.243,1.537,0.361,2.297,0.361
	c3.162,0,6.1-2.017,7.121-5.189c3.354-10.416,6.416-20.616,9.204-30.611l0.314-0.551c24.112-47.251,58.234-92.716,106.26-140.737
	c30.108,27.979,55.47,54.891,76.81,81.547c-19.556,25.319-35.601,50.521-48.751,76.291c-1.878,3.678-0.419,8.19,3.264,10.065
	c1.089,0.556,2.251,0.819,3.396,0.819c2.721,0,5.347-1.491,6.67-4.083c12.197-23.9,26.999-47.336,44.925-70.888
	c17.82,23.546,32.577,46.988,44.772,70.888c1.323,2.592,3.949,4.083,6.67,4.083c1.145,0,2.307-0.263,3.396-0.819
	c3.683-1.875,5.143-6.387,3.264-10.065c-13.144-25.759-29.134-50.958-48.564-76.263c21.362-26.519,46.781-53.31,76.997-81.198
	c47.826,47.88,81.834,93.23,105.887,140.36l0.656,1.054c2.75,9.834,5.766,19.867,9.064,30.108c1.021,3.172,3.959,5.189,7.12,5.189
	c0.76,0,1.535-0.117,2.297-0.361c3.934-1.267,6.095-5.481,4.828-9.418c-33.777-104.897-37.875-186.436-27.424-253.172
	c0.643-1.316,0.894-2.81,0.694-4.289c12.409-74.096,42.69-129.824,69.536-179.23l6.66-12.287c1.603-2.972,3.23-5.929,4.879-8.872
	l0.142-0.141c0.931-0.98,1.543-2.147,1.842-3.373c14.793-26.032,31.202-50.934,47.146-75.124
	c20.297-30.801,41.286-62.653,59.118-97.033c21.044-40.572,35.31-81.395,42.75-122.167h242.562
	c25.635,0,46.416-21.803,46.416-48.697V259.816C1778.775,232.921,1757.993,211.118,1732.359,211.118z M918.602,1659.181
	c-3.815-3.06-7.255-5.895-10.631-8.677c-4.307-3.551-8.51-7.014-13.224-10.732c13.501-25.944,30.388-51.322,51.455-77.022
	c3.248,2.417,6.491,4.827,9.727,7.233c33.343,24.785,67.811,50.411,100.176,76.341c-27.821,22.813-52.619,44.744-74.717,66.152
	C962.281,1695.182,941.406,1677.477,918.602,1659.181z M932.172,1344.601c12.465,9.465,24.932,18.821,37.29,28.094
	c27.949,20.972,56.799,42.623,84.424,64.635c-44.883,36.908-81.007,71.277-110.06,104.99
	c-42.601-31.771-85.666-64.523-124.919-98.88c31.212-32.205,70.784-67.062,107.021-94.19
	C928,1347.698,930.083,1346.149,932.172,1344.601z M934.184,1553.799c-17.929,21.926-32.928,43.664-45.464,65.738
	c-12.801-58.73-35.838-105.599-57.368-145.792C864.464,1501.36,899.478,1527.911,934.184,1553.799z M1066.249,1635.274
	c-32.802-26.319-67.669-52.239-101.389-77.301c-2.994-2.226-5.994-4.456-8.999-6.691c28.879-33.391,64.951-67.541,109.938-104.369
	c45.893,37.3,82.739,71.841,112.279,105.561c-2.708,2.026-5.413,4.049-8.112,6.068c-33.401,24.984-67.937,50.816-100.236,76.731
	c-0.582,0.466-1.161,0.933-1.741,1.399C1067.41,1636.207,1066.83,1635.74,1066.249,1635.274z M1178.93,1570.528
	c2.957-2.212,5.921-4.428,8.887-6.648c21.662,26.046,39.04,51.731,52.949,77.958c-9.571,7.436-18.37,14.373-26.792,21.133
	c-21.327,17.111-40.937,33.696-58.97,49.91c-22.202-21.537-47.137-43.6-75.132-66.558
	C1111.753,1620.777,1145.898,1595.234,1178.93,1570.528z M1199.811,1554.896c35.785-26.844,71.896-54.344,105.869-82.737
	c-22.077,41.115-45.907,89.202-58.759,149.887C1233.947,1599.517,1218.409,1577.317,1199.811,1554.896z M1190.09,1543.476
	c-29.715-34.043-66.617-68.806-112.409-106.186c28.582-22.91,58.605-45.44,87.648-67.234c12.296-9.227,24.701-18.537,37.104-27.955
	c13.499,9.618,26.937,19.352,40.043,29.165c31.419,23.523,57.811,45.281,80.453,66.334
	C1281.64,1474.173,1235.599,1509.343,1190.09,1543.476z M1156.346,1358.083c-29.335,22.015-59.668,44.777-88.609,67.998
	c-0.66,0.529-1.317,1.057-1.973,1.585c-28.569-22.854-58.422-45.26-87.318-66.942c-11.169-8.382-22.428-16.832-33.69-25.366
	c20.804-15.15,42.099-30.064,62.855-44.598c20.449-14.32,41.226-28.87,61.736-43.787c29.722,22.568,60.615,44.202,90.802,65.341
	c9.745,6.825,19.609,13.733,29.486,20.709C1178.506,1341.455,1167.381,1349.802,1156.346,1358.083z M1170.486,1144.735
	c-13.072,12.699-27.33,25.47-42.798,38.342c-18.619,15.493-38.193,30.521-58.138,45.201c-10.38-8.017-20.579-16.147-30.508-24.409
	c-23.931-19.915-44.991-39.592-63.26-59.134H1170.486z M955.54,1144.735c20.777,23.389,45.377,46.878,73.929,70.637
	c8.981,7.474,18.168,14.832,27.499,22.09c-19.26,13.947-38.746,27.594-57.945,41.037c-22.018,15.42-44.643,31.263-66.7,47.401
	c-32.227-24.623-64.23-49.997-93.999-76.541c-39.661-35.367-72.037-70.096-97.439-104.625H955.54z M1168.733,1300.054
	c-28.858-20.208-58.363-40.871-86.79-62.318c18.932-14.005,37.53-28.353,55.318-43.155c20.105-16.73,38.234-33.325,54.435-49.845
	h199.643c-25.097,33.951-56.992,68.101-95.985,102.871c-29.525,26.328-61.267,51.496-93.231,75.917
	C1190.938,1315.605,1179.76,1307.776,1168.733,1300.054z M702.42,1260.012c-19.878-38.327-33.495-76.844-40.802-115.277h60.837
	c26.938,38.327,62.107,76.738,105.908,115.796c29.066,25.918,60.126,50.648,91.425,74.627c-0.944,0.703-1.89,1.406-2.831,2.111
	c-36.582,27.385-76.511,62.524-108.152,95.087c-15.13-26.698-31.836-52.046-48.06-76.666
	C740.66,1325.211,719.891,1293.696,702.42,1260.012z M887.398,1823.614c12.653-63.001,13.814-116.985,8.105-163.992
	c0.983,0.808,1.964,1.617,2.95,2.429c3.423,2.826,6.914,5.701,10.782,8.804c22.326,17.913,42.764,35.235,61.472,52.14
	C936.518,1757.229,909.201,1790.264,887.398,1823.614z M1068.101,1802.642c-21.226-26.207-46.231-52.64-75.666-80.03
	c22.265-21.53,47.335-43.628,75.554-66.676c28.379,23.179,53.576,45.398,75.935,67.045
	C1114.397,1750.271,1089.345,1776.575,1068.101,1802.642z M1165.681,1723.408c17.634-15.828,36.808-32.033,57.659-48.763
	c5.521-4.428,11.208-8.938,17.169-13.615c-5.53,46.788-4.247,100.469,8.365,163.037
	C1227.109,1790.697,1199.832,1757.65,1165.681,1723.408z M1433.761,1260.012c-17.471,33.686-38.244,65.204-58.331,95.686
	c-14.755,22.392-29.908,45.388-43.913,69.452c-22.673-20.953-48.961-42.573-80.07-65.863c-11.995-8.981-24.246-17.883-36.557-26.684
	c30.957-23.723,61.675-48.187,90.428-73.825c43.133-38.464,77.83-76.296,104.481-114.043h64.765
	C1467.256,1183.169,1453.64,1221.683,1433.761,1260.012z"/>
<path style="fill:#FFD004;" d="M1429.147,479.078H692.173c-13.726,0-24.854,11.674-24.854,26.076v463.148h786.682V505.153
	C1454.001,490.752,1442.874,479.078,1429.147,479.078z"/>
<path style="fill:#241A39;" d="M1732.358,211.117H388.962c-25.635,0-46.416,21.803-46.416,48.698v836.22
	c0,26.895,20.781,48.698,46.416,48.698h257.422c7.44,40.773,21.705,81.596,42.749,122.167c17.83,34.377,38.819,66.224,59.115,97.023
	c18.456,28.002,37.537,56.96,54.012,87.517l6.655,12.28c51.315,94.433,115.179,211.958,42.811,436.701
	c-1.267,3.934,0.894,8.151,4.828,9.418c0.763,0.246,1.537,0.363,2.297,0.363c3.162,0,6.1-2.022,7.12-5.192
	c3.355-10.417,6.417-20.619,9.205-30.615l0.312-0.549c24.115-47.255,58.237-92.718,106.261-140.735
	c30.108,27.979,55.469,54.891,76.809,81.547c-19.555,25.319-35.6,50.519-48.75,76.289c-1.878,3.681-0.419,8.188,3.264,10.066
	c1.089,0.558,2.251,0.821,3.396,0.821c2.721,0,5.347-1.493,6.67-4.085c12.197-23.9,26.998-47.335,44.924-70.887
	c17.82,23.546,32.577,46.988,44.773,70.887c1.323,2.592,3.949,4.085,6.67,4.085c1.145,0,2.307-0.265,3.396-0.821
	c3.683-1.878,5.143-6.385,3.264-10.066c-13.144-25.758-29.134-50.957-48.565-76.262c21.363-26.519,46.783-53.31,76.999-81.198
	c47.824,47.877,81.83,93.227,105.885,140.359l0.659,1.057c2.75,9.834,5.765,19.867,9.063,30.107
	c1.021,3.172,3.959,5.192,7.121,5.192c0.76,0,1.535-0.117,2.297-0.363c3.935-1.267,6.095-5.484,4.828-9.418
	c-33.779-104.899-37.877-186.439-27.425-253.176c0.641-1.314,0.891-2.805,0.693-4.282c12.409-74.099,42.69-129.828,69.536-179.235
	l6.66-12.288c1.602-2.969,3.228-5.923,4.875-8.862l0.149-0.149c0.934-0.982,1.546-2.153,1.844-3.382
	c14.793-26.029,31.201-50.93,47.142-75.118c20.297-30.801,41.286-62.65,59.118-97.03c21.044-40.572,35.311-81.395,42.75-122.167
	h242.562c25.635,0,46.416-21.803,46.416-48.698v-836.22C1778.774,232.92,1757.993,211.117,1732.358,211.117z M655.755,1060.348
	h20.566c5.285,13.493,11.546,26.945,18.798,40.382h-39.105C655.142,1087.243,655.055,1073.778,655.755,1060.348z M1394.927,968.3
	H726.392V539.932c0-9.649,7.379-17.501,16.448-17.501h635.641c9.069,0,16.446,7.852,16.446,17.501V968.3z M1066.248,1635.275
	c-32.809-26.326-67.686-52.251-101.413-77.32c-2.986-2.22-5.978-4.444-8.974-6.673c28.878-33.392,64.949-67.543,109.937-104.371
	c45.894,37.299,82.741,71.841,112.281,105.562c-2.703,2.022-5.402,4.042-8.096,6.057c-33.406,24.989-67.949,50.826-100.254,76.745
	c-0.582,0.467-1.161,0.933-1.74,1.399C1067.409,1636.208,1066.83,1635.742,1066.248,1635.275z M1067.736,1426.077
	c-0.66,0.529-1.318,1.058-1.974,1.587c-28.566-22.851-58.416-45.255-87.31-66.936c-11.171-8.383-22.433-16.835-33.698-25.371
	c20.797-15.144,42.086-30.056,62.836-44.586c20.456-14.325,41.239-28.879,61.756-43.801c29.728,22.572,60.626,44.209,90.819,65.352
	c9.74,6.821,19.598,13.726,29.47,20.698c-11.135,8.437-22.267,16.792-33.309,25.078
	C1126.996,1380.106,1096.669,1402.862,1067.736,1426.077z M939.197,1100.73c-0.638-0.876-1.269-1.752-1.895-2.628
	c-9.002-12.596-16.855-25.172-23.577-37.754h326.855c-8.453,13.44-18.217,26.889-29.319,40.382H939.197z M1170.484,1144.733
	c-13.071,12.699-27.329,25.469-42.796,38.341c-18.619,15.493-38.194,30.522-58.138,45.201
	c-10.379-8.016-20.578-16.146-30.505-24.407c-23.932-19.915-44.992-39.592-63.261-59.135H1170.484z M1029.471,1215.371
	c8.98,7.473,18.166,14.831,27.496,22.089c-19.266,13.952-38.759,27.603-57.963,41.051c-22.012,15.415-44.63,31.256-66.681,47.389
	c-32.227-24.623-64.23-49.998-93.998-76.544c-39.662-35.365-72.037-70.094-97.44-104.623h214.657
	C976.319,1168.122,1000.919,1191.612,1029.471,1215.371z M932.171,1344.598c12.468,9.467,24.937,18.825,37.298,28.1
	c27.946,20.971,56.793,42.62,84.415,64.63c-44.881,36.909-81.005,71.278-110.057,104.992
	c-42.602-31.773-85.667-64.523-124.92-98.882c31.201-32.198,70.775-67.052,107.021-94.191
	C928,1347.695,930.083,1346.146,932.171,1344.598z M1178.947,1570.515c2.952-2.208,5.91-4.421,8.871-6.637
	c21.661,26.047,39.04,51.732,52.949,77.961c-9.569,7.432-18.369,14.372-26.793,21.134c-21.326,17.109-40.936,33.694-58.969,49.906
	c-22.203-21.536-47.137-43.599-75.133-66.555C1111.758,1620.771,1145.911,1595.228,1178.947,1570.515z M1077.68,1437.288
	c28.575-22.903,58.591-45.428,87.628-67.218c12.303-9.232,24.716-18.547,37.127-27.97c13.498,9.618,26.936,19.351,40.042,29.164
	c31.431,23.533,57.823,45.292,80.455,66.335c-41.291,36.572-87.331,71.744-132.839,105.877
	C1160.377,1509.43,1123.474,1474.669,1077.68,1437.288z M1202.123,1323.521c-11.178-7.913-22.351-15.739-33.373-23.456
	c-28.863-20.213-58.375-40.88-86.807-62.332c18.933-14.006,37.53-28.354,55.319-43.156c20.104-16.729,38.233-33.324,54.433-49.843
	h199.644c-25.097,33.949-56.992,68.098-95.985,102.869C1265.828,1273.931,1234.087,1299.099,1202.123,1323.521z M1230.422,1100.73
	c10.488-13.464,19.708-26.914,27.685-40.382h181.855c-5.57,13.475-12.175,26.927-19.833,40.382H1230.422z M896.872,1060.348
	c6.775,13.484,14.769,26.934,24.007,40.382H712.221c-7.628-13.455-14.212-26.906-19.77-40.382H896.872z M702.419,1260.012
	c-19.879-38.328-33.496-76.844-40.802-115.278h60.837c26.938,38.327,62.107,76.738,105.907,115.795
	c29.067,25.919,60.128,50.648,91.427,74.627c-0.944,0.703-1.89,1.406-2.83,2.11c-36.59,27.396-76.521,62.534-108.151,95.089
	c-15.13-26.7-31.836-52.048-48.061-76.668C740.66,1325.21,719.891,1293.695,702.419,1260.012z M934.185,1553.8
	c-17.929,21.925-32.929,43.663-45.465,65.736c-12.801-58.728-35.836-105.596-57.366-145.789
	C864.465,1501.362,899.478,1527.912,934.185,1553.8z M887.398,1823.611c12.653-63.001,13.814-116.984,8.105-163.99
	c0.993,0.817,1.985,1.634,2.981,2.456c3.413,2.811,6.894,5.681,10.75,8.775c22.327,17.914,42.765,35.236,61.472,52.142
	C936.519,1757.226,909.202,1790.261,887.398,1823.611z M981.389,1712.475c-19.108-17.295-39.983-35.001-62.787-53.297
	c-3.801-3.05-7.233-5.878-10.597-8.652c-4.32-3.558-8.533-7.029-13.258-10.756c13.502-25.942,30.388-51.32,51.454-77.019
	c3.241,2.411,6.477,4.817,9.707,7.217c33.35,24.79,67.826,50.42,100.197,76.358
	C1028.284,1669.138,1003.486,1691.067,981.389,1712.475z M1068.1,1802.641c-21.226-26.206-46.231-52.639-75.666-80.03
	c22.265-21.53,47.336-43.626,75.555-66.673c28.38,23.177,53.577,45.394,75.936,67.041
	C1114.398,1750.268,1089.345,1776.574,1068.1,1802.641z M1165.682,1723.406c17.634-15.827,36.809-32.031,57.66-48.759
	c5.521-4.43,11.207-8.941,17.167-13.619c-5.529,46.789-4.246,100.469,8.366,163.036
	C1227.109,1790.694,1199.832,1757.646,1165.682,1723.406z M1246.92,1622.044c-12.973-22.53-28.511-44.731-47.108-67.151
	c35.785-26.845,71.894-54.344,105.866-82.735C1283.601,1513.271,1259.771,1561.359,1246.92,1622.044z M1433.761,1260.012
	c-17.472,33.686-38.244,65.203-58.331,95.683c-14.756,22.391-29.909,45.387-43.914,69.452
	c-22.662-20.943-48.95-42.565-80.069-65.864c-11.996-8.98-24.246-17.882-36.557-26.682c30.958-23.723,61.676-48.188,90.428-73.827
	c43.134-38.464,77.831-76.295,104.481-114.041h64.764C1467.256,1183.167,1453.639,1221.683,1433.761,1260.012z M1480.167,1100.73
	h-42.92c7.277-13.437,13.556-26.889,18.851-40.382h23.744l0.582-0.006C1481.124,1073.774,1481.038,1087.24,1480.167,1100.73z
	 M1683.937,1100.73h-188.765c0.873-14.127,0.923-28.235,0.143-42.312c14.044-3.682,24.639-12.366,30.373-23.657
	c2.341-4.609,3.871-9.652,4.495-14.967c0.211-1.795,0.321-3.62,0.321-5.471l0,0c0-25.313-20.054-46.024-50.661-46.024h-74.937
	V539.932c0-15.108-11.787-27.406-26.299-27.477l-0.125-0.002H742.841c-14.572,0-26.426,12.326-26.426,27.479V968.3h-74.937
	c-18.172,0-32.624,7.301-41.368,18.53c-5.983,7.685-9.294,17.209-9.294,27.493l0,0c0,1.851,0.11,3.675,0.321,5.471
	c0.624,5.315,2.154,10.358,4.495,14.967c7.6,14.966,23.743,25.353,45.135,25.579c-0.673,13.438-0.591,26.906,0.241,40.39H437.404
	c-7.971,0-15.434-2.338-21.794-6.396l-0.024-0.015l-0.806-0.528l-0.06-0.04l-0.728-0.502l-0.123-0.086l-0.669-0.487l-0.155-0.113
	l-0.215-0.164l-0.869-0.677c-9.294-7.42-15.556-18.807-16.486-31.757c-0.091-1.119-0.132-2.249-0.132-3.38V911.597l0.011,0.007
	V299.246c0-24.359,18.821-44.105,42.039-44.105h1246.535c23.217,0,42.038,19.746,42.038,44.105v757.358
	c0,10.279-3.352,19.737-8.971,27.236C1709.304,1094.126,1697.358,1100.73,1683.937,1100.73z"/>
<path style="fill:#E97316;" d="M712.221,1100.73h208.658c-9.238-13.448-17.232-26.898-24.007-40.382H692.451
	C698.009,1073.824,704.593,1087.275,712.221,1100.73z"/>
<path style="fill:#E97316;" d="M676.32,1060.348h-20.566c-0.699,13.43-0.613,26.895,0.258,40.382h39.105
	C687.866,1087.293,681.605,1073.841,676.32,1060.348z"/>
<path style="fill:#E97316;" d="M1454.001,541.803v245.04c72.859-78.721,134.958-167.901,184.133-264.026
	c7.833-15.306,15.448-30.853,22.797-46.613V339.365c0-16.748-13.87-30.375-30.918-30.375h-74.414
	c-18.246,62.846-43.8,123.757-72.921,180.671C1473.636,507.332,1464.069,524.723,1454.001,541.803z"/>
<path style="fill:#E97316;" d="M460.39,947.889v41.533c0,16.748,13.871,30.373,30.918,30.373h99.829
	c-0.211-1.795-0.321-3.62-0.321-5.471l0,0c0-10.284,3.311-19.809,9.294-27.493c-30.369-4.534-60.326-11.162-89.526-20.052
	C493.136,961.476,476.436,955.136,460.39,947.889z"/>
<path style="fill:#E97316;" d="M445.423,989.422v-48.649c-17.429-8.701-34.079-18.479-50.069-29.168l-0.011-0.007v144.988
	c0,1.131,0.04,2.261,0.132,3.38c0.05,0.614,0.116,1.225,0.2,1.83c1.342,12.189,7.442,22.856,16.287,29.927l0.869,0.677l0.215,0.164
	l0.155,0.113l0.669,0.487l0.123,0.086l0.728,0.502l0.06,0.04l0.806,0.528l0.024,0.015c6.36,4.058,13.822,6.396,21.794,6.396h203.605
	c-0.833-13.484-0.914-26.951-0.241-40.39c-21.391-0.226-37.535-10.613-45.135-25.579H491.309
	C466.008,1034.762,445.423,1014.424,445.423,989.422z"/>
<path style="fill:#E97316;" d="M1675.899,339.365V442.94c19.398-44.756,36.446-91.018,50.052-138.197v-5.495
	c0-24.346-18.804-44.098-42.014-44.098h-114.673c-2.818,13.019-5.986,25.982-9.469,38.871h70.219
	C1655.314,294.022,1675.899,314.363,1675.899,339.365z"/>
<path style="fill:#E97316;" d="M1056.397,1060.348H913.725c6.723,12.582,14.575,25.158,23.577,37.754l0.856-0.214
	C978.581,1087.806,1018.034,1075.226,1056.397,1060.348z"/>
<path style="fill:#E06310;" d="M1258.107,1060.348c-7.977,13.468-17.197,26.918-27.685,40.382h189.707
	c7.658-13.455,14.263-26.907,19.833-40.382H1258.107z"/>
<path style="fill:#E06310;" d="M1479.842,1060.348h-23.744c-5.295,13.493-11.574,26.945-18.851,40.382h42.92
	c0.871-13.49,0.957-26.956,0.258-40.388L1479.842,1060.348z"/>
<path style="fill:#E06310;" d="M1660.932,989.422V476.204c-7.349,15.759-14.965,31.306-22.797,46.613
	c-49.175,96.126-111.274,185.305-184.133,264.026V968.3h25.841c30.607,0,50.661,20.711,50.661,46.024l0,0
	c0,1.851-0.11,3.675-0.321,5.471h99.831C1647.061,1019.795,1660.932,1006.17,1660.932,989.422z"/>
<path style="fill:#E06310;" d="M1056.397,1060.348c-38.363,14.878-77.815,27.458-118.239,37.54l-0.856,0.214
	c0.626,0.876,1.258,1.752,1.895,2.628h272.063c11.103-13.493,20.867-26.942,29.319-40.382H1056.397z"/>
<path style="fill:#E06310;" d="M1725.951,304.743c-13.606,47.178-30.654,93.441-50.052,138.197v546.483
	c0,25.001-20.584,45.34-45.885,45.34h-104.327c-5.734,11.29-16.329,19.975-30.373,23.657c0.78,14.077,0.73,28.185-0.143,42.312
	h188.765c13.421,0,25.367-6.604,33.058-16.89c5.61-7.503,8.955-16.966,8.955-27.255V304.743z"/>
<path style="fill:#FBBB0E;" d="M667.319,968.3h49.096v-0.707c-16.516-2.883-32.899-6.608-49.096-11.191V968.3z"/>
<path style="fill:#FBBB0E;" d="M1378.482,522.431h-2.379c-4.293,16.431-9.353,32.639-15.134,48.584v375.147l-27.328-311.947
	c-80.74,159.966-234.923,284.527-408.588,326.145c-13.162,3.154-26.382,5.801-39.632,7.94h509.507V539.932
	C1394.927,530.283,1387.551,522.431,1378.482,522.431z"/>
<path style="fill:#FBBB0E;" d="M1454.001,505.152c0-1.8-0.174-3.558-0.505-5.255c-0.248-1.273-0.585-2.513-1.003-3.711l-0.216-0.596
	c-0.222-0.592-0.465-1.174-0.727-1.743l-0.268-0.566c-0.824-1.687-1.817-3.267-2.957-4.716l-0.385-0.478
	c-4.557-5.52-11.287-9.011-18.793-9.011h-43.615l0,0c-1.952,11.214-4.266,22.344-6.925,33.379
	c14.512,0.071,26.299,12.368,26.299,27.477V968.3h49.096V505.152z"/>
<path style="fill:#FFFFFF;" d="M1675.899,989.422V339.365c0-25.001-20.584-45.342-45.885-45.342H491.309
	c-25.301,0-45.886,20.341-45.886,45.342v650.057c0,25.001,20.585,45.34,45.886,45.34h104.324c-2.341-4.609-3.871-9.652-4.495-14.967
	h-99.829c-17.047,0-30.918-13.625-30.918-30.373V339.365c0-16.748,13.871-30.375,30.918-30.375h1138.705
	c17.048,0,30.918,13.627,30.918,30.375v650.057c0,16.748-13.87,30.373-30.918,30.373h-99.831
	c-0.624,5.315-2.154,10.358-4.495,14.967h104.327C1655.314,1034.762,1675.899,1014.424,1675.899,989.422z"/>
<polygon style="fill:#FFFFFF;" points="760.351,766.557 791.692,588.41 901.265,557.523 760.351,557.523 "/>
<polygon style="fill:#FFFFFF;" points="1125.263,557.523 1329.628,588.41 1333.641,634.215 1360.969,946.162 1360.969,557.523 "/>
<polygon style="fill:#E06310;" points="497.884,344.95 497.884,899.9 561.361,398.307 783.175,344.95 "/>
<path style="fill:#FFFFFF;" d="M384.661,260.136c7.387,0,13.375-5.988,13.375-13.374c0-7.387-5.988-13.375-13.375-13.375
	c-7.387,0-13.375,5.988-13.375,13.375C371.286,254.148,377.275,260.136,384.661,260.136z"/>
<path style="fill:#FFFFFF;" d="M384.661,1090.757c-7.387,0-13.375,5.988-13.375,13.375c0,7.387,5.988,13.375,13.375,13.375
	c7.387,0,13.375-5.988,13.375-13.375C398.036,1096.745,392.048,1090.757,384.661,1090.757z"/>
<path style="fill:#FFFFFF;" d="M1738.068,233.386c-7.387,0-13.375,5.988-13.375,13.375c0,7.387,5.988,13.374,13.375,13.374
	c7.387,0,13.375-5.988,13.375-13.374C1751.443,239.375,1745.455,233.386,1738.068,233.386z"/>
<path style="fill:#FFFFFF;" d="M1738.068,1090.757c-7.387,0-13.375,5.988-13.375,13.375c0,7.387,5.988,13.375,13.375,13.375
	c7.387,0,13.375-5.988,13.375-13.375C1751.443,1096.745,1745.455,1090.757,1738.068,1090.757z"/>
<path style="fill:#FFFFFF;" d="M1423.441,992.994h-377.892c-2.756,0-4.989,2.234-4.989,4.989c0,2.755,2.234,4.989,4.989,4.989
	h377.892c2.755,0,4.989-2.234,4.989-4.989C1428.43,995.227,1426.196,992.994,1423.441,992.994z"/>
</svg>
