<svg width="76" height="76" viewBox="0 0 76 76" fill="none" xmlns="http://www.w3.org/2000/svg">
<path d="M54.7986 9.95861e-07H21.2014C18.4169 -0.000845266 15.6596 0.537668 13.0869 1.58477C10.5143 2.63188 8.17672 4.16705 6.20782 6.10256C4.23892 8.03808 2.67727 10.336 1.61211 12.865C0.546942 15.3941 -0.000859846 18.1047 1.01304e-06 20.8419V50.237C0.00173603 52.2862 0.830616 54.2511 2.30466 55.7001C3.77871 57.1492 5.77745 57.964 7.86207 57.9657H24.8966V52.8132C24.8966 47.6607 17.0345 43.7963 17.0345 43.7963H58.9655C58.9655 43.7963 51.1034 47.6607 51.1034 52.8132V57.9657H68.1379C70.2225 57.964 72.2213 57.1492 73.6953 55.7001C75.1694 54.2511 75.9983 52.2862 76 50.237V20.8419C76.0009 18.1047 75.4531 15.3941 74.3879 12.865C73.3227 10.336 71.7611 8.03808 69.7922 6.10256C67.8233 4.16705 65.4857 2.63188 62.9131 1.58477C60.3404 0.537668 57.5831 -0.000845266 54.7986 9.95861e-07Z" fill="#F37046"/>
<path d="M3.93104 51.5251V22.13C3.93017 19.3928 4.47798 16.6822 5.54314 14.1532C6.60831 11.6241 8.16995 9.32621 10.1389 7.39069C12.1078 5.45517 14.4453 3.92 17.018 2.8729C19.5906 1.8258 22.348 1.28728 25.1324 1.28813H58.7297C60.3174 1.29246 61.8997 1.47177 63.4469 1.8227C60.7274 0.621676 57.78 0.000479649 54.7986 9.95861e-07H21.2014C18.4169 -0.000845266 15.6596 0.537668 13.0869 1.58477C10.5143 2.63188 8.17672 4.16705 6.20782 6.10256C4.23892 8.03808 2.67727 10.336 1.61211 12.865C0.546942 15.3941 -0.000859846 18.1047 1.01304e-06 20.8419V50.237C0.00248109 52.2095 0.77209 54.1065 2.15119 55.5393C3.53029 56.9721 5.41449 57.8324 7.41786 57.9438C6.34502 57.2378 5.46564 56.2828 4.85749 55.1633C4.24933 54.0438 3.93114 52.7942 3.93104 51.5251Z" fill="#F1592B"/>
<path d="M52.1273 5.15039H23.8763C18.935 5.1521 14.1966 7.08248 10.7026 10.5172C7.20858 13.952 5.2449 18.6101 5.24316 23.4676V47.6586C5.24299 48.3353 5.37845 49.0053 5.64179 49.6306C5.90513 50.2558 6.2912 50.8238 6.77794 51.3023C7.26469 51.7808 7.84256 52.1603 8.47855 52.4192C9.11454 52.6781 9.79619 52.8113 10.4845 52.8111H24.8983C24.8983 47.6586 17.0363 43.7942 17.0363 43.7942H58.9673C58.9673 43.7942 51.1052 47.6586 51.1052 52.8111H65.519C66.2074 52.8113 66.889 52.6781 67.525 52.4192C68.161 52.1603 68.7389 51.7808 69.2256 51.3023C69.7124 50.8238 70.0984 50.2558 70.3618 49.6306C70.6251 49.0053 70.7606 48.3353 70.7604 47.6586V23.4676C70.7587 18.6101 68.795 13.952 65.301 10.5172C61.807 7.08248 57.0686 5.1521 52.1273 5.15039Z" fill="#F5F5F5"/>
<path d="M9.1742 48.9467V24.7557C9.17594 19.8982 11.1396 15.2401 14.6336 11.8054C18.1276 8.37061 22.866 6.44022 27.8073 6.43852H56.0583C57.3422 6.43878 58.6226 6.56914 59.8793 6.82753C57.449 5.72436 54.8042 5.15217 52.1273 5.15039H23.8763C18.935 5.1521 14.1966 7.08248 10.7026 10.5172C7.20858 13.952 5.2449 18.6101 5.24316 23.4676V47.6586C5.24299 48.3353 5.37845 49.0053 5.64179 49.6306C5.90513 50.2558 6.2912 50.8238 6.77794 51.3023C7.26469 51.7808 7.84256 52.1603 8.47855 52.4192C9.11454 52.6781 9.79619 52.8113 10.4845 52.8111H10.9812C10.4157 52.332 9.96176 51.7389 9.64999 51.0722C9.33821 50.4054 9.17595 49.6805 9.1742 48.9467Z" fill="#E0E0E0"/>
<path d="M55.0361 27.7381V16.0496C55.0361 14.2974 53.5912 12.877 51.8088 12.877L24.1945 12.877C22.4121 12.877 20.9672 14.2974 20.9672 16.0496V27.7381C20.9672 29.4903 22.4121 30.9107 24.1945 30.9107L51.8088 30.9107C53.5912 30.9107 55.0361 29.4903 55.0361 27.7381Z" fill="#F37046"/>
<path d="M24.8949 27.7381V16.0496C24.8949 15.2082 25.2349 14.4012 25.8402 13.8062C26.4454 13.2112 27.2663 12.877 28.1223 12.877H24.1912C23.3353 12.877 22.5144 13.2112 21.9091 13.8062C21.3039 14.4012 20.9639 15.2082 20.9639 16.0496V27.7381C20.9639 28.5795 21.3039 29.3865 21.9091 29.9815C22.5144 30.5765 23.3353 30.9107 24.1912 30.9107H28.1223C27.2663 30.9107 26.4454 30.5765 25.8402 29.9815C25.2349 29.3865 24.8949 28.5795 24.8949 27.7381Z" fill="#F1592B"/>
<path d="M58.9666 45.0842H17.0355C15.993 45.0842 14.9931 44.6771 14.2559 43.9524C13.5187 43.2277 13.1045 42.2447 13.1045 41.2198C13.1045 40.195 13.5187 39.212 14.2559 38.4873C14.9931 37.7626 15.993 37.3555 17.0355 37.3555H58.9666C60.0091 37.3555 61.009 37.7626 61.7462 38.4873C62.4834 39.212 62.8976 40.195 62.8976 41.2198C62.8976 42.2447 62.4834 43.2277 61.7462 43.9524C61.009 44.6771 60.0091 45.0842 58.9666 45.0842ZM17.0355 39.9317C16.688 39.9317 16.3547 40.0674 16.109 40.309C15.8632 40.5506 15.7252 40.8782 15.7252 41.2198C15.7252 41.5615 15.8632 41.8891 16.109 42.1307C16.3547 42.3723 16.688 42.508 17.0355 42.508H58.9666C59.3141 42.508 59.6474 42.3723 59.8931 42.1307C60.1389 41.8891 60.2769 41.5615 60.2769 41.2198C60.2769 40.8782 60.1389 40.5506 59.8931 40.309C59.6474 40.0674 59.3141 39.9317 58.9666 39.9317H17.0355ZM24.8976 75.9993C24.6418 75.9994 24.3916 75.9259 24.1778 75.7879C23.964 75.6499 23.7959 75.4534 23.6944 75.2226C23.5928 74.9919 23.5622 74.7369 23.6062 74.4892C23.6503 74.2416 23.7671 74.012 23.9424 73.8288L44.9079 51.9306C45.028 51.8049 45.1726 51.7043 45.3331 51.6346C45.4936 51.5649 45.6667 51.5276 45.8421 51.5249H45.8631C46.0352 51.5248 46.2056 51.5581 46.3645 51.6229C46.5235 51.6877 46.6679 51.7826 46.7895 51.9023L52.0309 57.0548C52.2696 57.2977 52.4017 57.6231 52.3987 57.9609C52.3957 58.2986 52.2579 58.6217 52.0149 58.8605C51.772 59.0993 51.4433 59.2348 51.0998 59.2377C50.7562 59.2407 50.4252 59.1108 50.1781 58.8762L45.8932 54.6627L25.8515 75.5948C25.729 75.7226 25.5811 75.8244 25.4171 75.8939C25.253 75.9635 25.0763 75.9993 24.8976 75.9993Z" fill="#74391C"/>
<path d="M51.103 76.0001C50.924 76.0001 50.7469 75.9642 50.5827 75.8944C50.4184 75.8246 50.2704 75.7225 50.1478 75.5943L30.11 54.6635L25.8251 58.877C25.578 59.1116 25.247 59.2415 24.9034 59.2385C24.5599 59.2356 24.2312 59.1001 23.9883 58.8613C23.7453 58.6225 23.6075 58.2994 23.6045 57.9616C23.6016 57.6239 23.7336 57.2985 23.9723 57.0556L29.2137 51.9031C29.3371 51.7804 29.4847 51.6837 29.6473 51.6188C29.8099 51.5539 29.9843 51.5222 30.1598 51.5256C30.3352 51.5283 30.5083 51.5656 30.6688 51.6353C30.8293 51.705 30.9739 51.8057 31.094 51.9314L52.0596 73.8296C52.2348 74.0128 52.3517 74.2425 52.3957 74.4903C52.4398 74.7381 52.409 74.9932 52.3073 75.224C52.2056 75.4548 52.0373 75.6513 51.8233 75.7892C51.6093 75.9271 51.3589 76.0004 51.103 76.0001Z" fill="#74391C"/>
<path d="M30.1372 54.0979C29.7897 54.0979 29.4564 53.9622 29.2106 53.7206C28.9649 53.4791 28.8268 53.1514 28.8268 52.8098C28.8268 47.0789 26.6019 44.7165 26.5783 44.6933C26.3399 44.4473 26.2094 44.1191 26.2148 43.7794C26.2202 43.4397 26.3611 43.1157 26.6071 42.8771C26.852 42.6398 27.1823 42.5072 27.5261 42.5082C27.8699 42.5091 28.1994 42.6436 28.4429 42.8822C28.5661 43.0033 31.4475 45.9157 31.4475 52.8098C31.4475 53.1514 31.3095 53.4791 31.0637 53.7206C30.818 53.9622 30.4847 54.0979 30.1372 54.0979ZM45.8613 54.0979C45.5138 54.0979 45.1805 53.9622 44.9348 53.7206C44.689 53.4791 44.551 53.1514 44.551 52.8098C44.551 45.9145 47.4337 43.0033 47.5556 42.8822C47.8001 42.6393 48.1327 42.5018 48.4803 42.5C48.8279 42.4982 49.162 42.6322 49.4091 42.8725C49.6562 43.1129 49.796 43.4399 49.7979 43.7816C49.7997 44.1233 49.6634 44.4517 49.4189 44.6946C49.3573 44.759 47.1717 47.1305 47.1717 52.8098C47.1717 53.1514 47.0336 53.4791 46.7879 53.7206C46.5421 53.9622 46.2089 54.0979 45.8613 54.0979ZM51.1027 66.9792C50.9306 66.9794 50.7602 66.9461 50.6012 66.8813C50.4422 66.8166 50.2978 66.7216 50.1763 66.6018L37.9993 54.6312L25.8222 66.6018C25.5751 66.8364 25.2441 66.9663 24.9005 66.9633C24.557 66.9604 24.2283 66.8249 23.9854 66.5861C23.7424 66.3473 23.6046 66.0242 23.6016 65.6864C23.5986 65.3487 23.7307 65.0233 23.9694 64.7804L37.0728 51.8991C37.3186 51.6576 37.6518 51.522 37.9993 51.522C38.3467 51.522 38.6799 51.6576 38.9257 51.8991L52.0291 64.7804C52.2123 64.9605 52.3371 65.19 52.3876 65.4398C52.4381 65.6897 52.4122 65.9486 52.313 66.184C52.2139 66.4193 52.046 66.6205 51.8305 66.762C51.6151 66.9036 51.3618 66.9791 51.1027 66.9792Z" fill="#74391C"/>
<path d="M34.07 75.9953C33.8979 75.9953 33.7275 75.962 33.5686 75.8972C33.4096 75.8325 33.2652 75.7375 33.1436 75.6178L29.2126 71.7535C28.9739 71.5105 28.8418 71.1851 28.8448 70.8474C28.8478 70.5096 28.9856 70.1866 29.2285 69.9477C29.4715 69.7089 29.8001 69.5734 30.1437 69.5705C30.4873 69.5676 30.8183 69.6974 31.0654 69.932L34.0202 72.8355L44.8895 60.9641C45.1241 60.718 45.4474 60.5721 45.7901 60.5578C46.1329 60.5435 46.4677 60.6619 46.7226 60.8875C46.9775 61.1132 47.1323 61.4281 47.1536 61.7647C47.1749 62.1012 47.0612 62.4326 46.8367 62.6876L35.0436 75.5689C34.9248 75.6991 34.7802 75.8041 34.6186 75.8774C34.4571 75.9507 34.282 75.9908 34.1041 75.9953H34.07Z" fill="#74391C"/>
<path d="M41.9296 75.9935H41.8956C41.7178 75.9892 41.5427 75.9493 41.3812 75.8762C41.2196 75.8031 41.075 75.6984 40.9561 75.5684L29.1629 62.6871C29.0438 62.5621 28.9512 62.415 28.8906 62.2544C28.8301 62.0938 28.8027 61.9229 28.8101 61.7518C28.8175 61.5806 28.8595 61.4126 28.9338 61.2577C29.008 61.1027 29.1129 60.9638 29.2424 60.8492C29.3719 60.7346 29.5234 60.6465 29.6879 60.5901C29.8525 60.5337 30.0268 60.5102 30.2007 60.5208C30.3746 60.5315 30.5446 60.5761 30.7008 60.6522C30.8569 60.7282 30.9961 60.8341 31.1101 60.9636L41.9794 72.835L44.9343 69.9303C45.1814 69.6956 45.5124 69.5658 45.856 69.5687C46.1995 69.5717 46.5282 69.7071 46.7711 69.946C47.0141 70.1848 47.1519 70.5079 47.1549 70.8456C47.1579 71.1833 47.0258 71.5087 46.7871 71.7517L42.8561 75.6161C42.7344 75.7357 42.59 75.8307 42.4311 75.8954C42.2721 75.9602 42.1017 75.9935 41.9296 75.9935ZM37.9986 54.0953C37.6511 54.0953 37.3178 53.9596 37.072 53.718C36.8263 53.4765 36.6883 53.1488 36.6883 52.8072V43.7903C36.6883 43.4487 36.8263 43.121 37.072 42.8795C37.3178 42.6379 37.6511 42.5022 37.9986 42.5022C38.3461 42.5022 38.6794 42.6379 38.9252 42.8795C39.1709 43.121 39.3089 43.4487 39.3089 43.7903V52.8072C39.3089 53.1488 39.1709 53.4765 38.9252 53.718C38.6794 53.9596 38.3461 54.0953 37.9986 54.0953ZM24.8952 75.9935C24.5476 75.9935 24.2143 75.8578 23.9686 75.6162C23.7229 75.3746 23.5848 75.047 23.5848 74.7053V52.8072C23.5848 49.2339 18.4325 45.9183 16.4474 44.9419C16.2881 44.8695 16.1451 44.7665 16.0271 44.6388C15.9091 44.5111 15.8184 44.3615 15.7603 44.1987C15.7023 44.0359 15.6781 43.8633 15.6891 43.6911C15.7002 43.519 15.7464 43.3507 15.8249 43.1964C15.9033 43.0421 16.0125 42.9049 16.146 42.7929C16.2795 42.6809 16.4344 42.5963 16.6018 42.5443C16.7691 42.4923 16.9453 42.4739 17.12 42.4901C17.2947 42.5063 17.4644 42.5568 17.6188 42.6387C17.97 42.81 26.2055 46.9256 26.2055 52.8072V74.7053C26.2055 75.047 26.0674 75.3746 25.8217 75.6162C25.576 75.8578 25.2427 75.9935 24.8952 75.9935ZM51.1021 75.9935C50.7545 75.9935 50.4212 75.8578 50.1755 75.6162C49.9298 75.3746 49.7917 75.047 49.7917 74.7053V52.8072C49.7917 46.9269 58.0272 42.8113 58.3784 42.6387C58.688 42.4949 59.0425 42.4759 59.3662 42.5857C59.6898 42.6956 59.9569 42.9257 60.1101 43.2267C60.2634 43.5277 60.2907 43.8757 60.1862 44.1963C60.0818 44.5168 59.8538 44.7845 59.5512 44.9419C57.566 45.9222 52.4124 49.2468 52.4124 52.8072V74.7053C52.4124 75.047 52.2743 75.3746 52.0286 75.6162C51.7829 75.8578 51.4496 75.9935 51.1021 75.9935Z" fill="#74391C"/>
</svg>
