<svg width="512" height="512" viewBox="0 0 512 512" fill="none" xmlns="http://www.w3.org/2000/svg">
<g clip-path="url(#clip0_1290_2)">
<path d="M487.252 239.757L272.243 24.7477C277.273 22.5414 282.399 20.5614 287.605 18.8135L493.187 224.395C491.439 229.601 489.459 234.727 487.252 239.757Z" fill="url(#paint0_linear_1290_2)"/>
<path d="M452.809 292.273L219.727 59.1912C223.428 55.774 227.259 52.5014 231.213 49.3809L462.619 280.787C459.499 284.741 456.226 288.572 452.809 292.273Z" fill="url(#paint1_linear_1290_2)"/>
<path d="M417.336 322.479C413.025 325.339 408.594 328.013 404.054 330.493L181.507 107.946C183.988 103.406 186.662 98.9747 189.521 94.6638L417.336 322.479Z" fill="url(#paint2_linear_1290_2)"/>
<path d="M356.514 348.616C350.537 349.991 344.492 351.055 338.405 351.803L160.197 173.595C160.945 167.508 162.009 161.463 163.384 155.486L356.514 348.616Z" fill="url(#paint3_linear_1290_2)"/>
<path d="M360.283 10.1808L159.622 210.843C158.981 203.989 158.756 197.102 158.947 190.221L339.654 9.51415C346.561 9.3224 353.454 9.54226 360.283 10.1808Z" fill="url(#paint4_linear_1290_2)"/>
<path d="M426.231 31.1938L180.634 276.79C177.971 272.244 175.542 267.565 173.357 262.77L412.21 23.9174C417.005 26.1018 421.685 28.5305 426.231 31.1938Z" fill="url(#paint5_linear_1290_2)"/>
<path d="M471.983 72.4018L221.843 322.542C217.779 319.546 213.868 316.35 210.123 312.966L462.406 60.682C465.791 64.4274 468.987 68.3389 471.983 72.4018Z" fill="url(#paint6_linear_1290_2)"/>
<path d="M498.866 132.494L281.926 349.433C276.264 348.223 270.671 346.707 265.173 344.89L494.329 115.734C496.148 121.233 497.663 126.828 498.866 132.494Z" fill="url(#paint7_linear_1290_2)"/>
<path d="M498.05 207.08L304.92 13.9505C310.897 12.5755 316.942 11.5115 323.029 10.763L501.237 188.971C500.489 195.059 499.425 201.103 498.05 207.08Z" fill="url(#paint8_linear_1290_2)"/>
<path d="M471.911 267.902L244.097 40.0886C248.441 37.2063 252.872 34.5369 257.379 32.0743L479.927 254.622C477.446 259.161 474.772 263.592 471.911 267.902Z" fill="url(#paint9_linear_1290_2)"/>
<path d="M441.713 303.368C438.013 306.785 434.181 310.058 430.228 313.178L198.821 81.7724C201.941 77.8188 205.214 73.9873 208.631 70.2865L441.713 303.368Z" fill="url(#paint10_linear_1290_2)"/>
<path d="M389.203 337.819C384.17 340.018 379.042 341.996 373.834 343.746L168.253 138.166C170.003 132.958 171.981 127.83 174.18 122.797L389.203 337.819Z" fill="url(#paint11_linear_1290_2)"/>
<path d="M396.267 17.67L167.111 246.826C165.294 241.328 163.778 235.735 162.568 230.073L379.506 13.1343C385.172 14.3374 390.768 15.8516 396.267 17.67Z" fill="url(#paint12_linear_1290_2)"/>
<path d="M451.318 49.5937L199.034 301.877C195.65 298.132 192.454 294.22 189.458 290.157L439.598 40.0173C443.661 43.0132 447.573 46.2092 451.318 49.5937Z" fill="url(#paint13_linear_1290_2)"/>
<path d="M488.083 99.7888L249.23 338.642C244.435 336.457 239.756 334.029 235.21 331.365L480.806 85.769C483.469 90.315 485.898 94.9944 488.083 99.7888Z" fill="url(#paint14_linear_1290_2)"/>
<path d="M502.486 172.346L321.779 353.053C314.872 353.245 307.986 353.018 301.157 352.378L501.819 151.717C502.458 158.546 502.678 165.439 502.486 172.346Z" fill="url(#paint15_linear_1290_2)"/>
<path d="M453.786 304.348C527.244 230.89 531.799 115.92 463.94 48.0607C396.081 -19.7984 281.111 -15.2436 207.652 58.2144C157.848 108.019 139.723 176.904 154.36 237.253C157.916 251.912 159.127 267.088 157.022 282.025C154.773 297.991 149.632 314.466 141.758 330.527C132.305 349.848 119.372 367.783 103.322 383.833L128.168 408.679C144.218 392.629 162.153 379.696 181.488 370.236C197.542 362.366 214.014 357.226 229.979 354.978C244.915 352.873 260.09 354.085 274.747 357.64C335.095 372.277 403.98 354.152 453.786 304.348ZM179.245 332.755C183.047 323.435 186.103 314.015 188.391 304.608C194.188 311.456 200.544 317.812 207.392 323.609C197.984 325.897 188.564 328.953 179.245 332.755ZM274.235 321.065L274.277 320.831C273.729 320.732 273.177 320.645 272.627 320.551C254.025 314.396 236.809 304.122 222.343 289.655C207.876 275.189 197.602 257.973 191.447 239.371C191.353 238.821 191.267 238.269 191.167 237.721L190.933 237.763C174.864 187.046 189.159 126.397 232.496 83.0594C292.255 23.301 384.933 18.7452 439.092 72.9048C493.252 127.064 488.696 219.742 428.938 279.501C385.601 322.84 324.953 337.134 274.235 321.065Z" fill="url(#paint16_linear_1290_2)"/>
<path d="M451.366 60.6338C389.912 -0.820223 285.793 3.30489 219.268 69.8298C152.742 136.355 148.617 240.474 210.071 301.928C271.525 363.382 375.644 359.257 442.169 292.732C508.694 226.206 512.82 122.088 451.366 60.6338ZM222.344 289.656C168.184 235.497 172.74 142.819 232.498 83.0604C292.257 23.302 384.935 18.7462 439.094 72.9058C493.254 127.065 488.698 219.743 428.94 279.502C369.181 339.26 276.502 343.816 222.344 289.656Z" fill="url(#paint17_linear_1290_2)"/>
<path d="M197.497 314.503C129.638 246.643 134.194 131.673 207.652 58.2144C281.11 -15.2446 396.08 -19.7994 463.939 48.0597C531.798 115.919 527.243 230.889 453.785 304.347C380.327 377.805 265.357 382.362 197.497 314.503ZM439.094 72.9058C384.935 18.7462 292.257 23.302 232.498 83.0604C172.74 142.819 168.184 235.498 222.344 289.656C276.503 343.815 369.181 339.26 428.94 279.502C488.698 219.743 493.253 127.065 439.094 72.9058Z" fill="url(#paint18_linear_1290_2)"/>
<path d="M198.288 315.272L198.285 315.274C201.213 318.167 204.251 320.947 207.391 323.609C197.984 325.897 188.564 328.953 179.245 332.755L115.744 396.256L128.168 408.679C144.218 392.629 162.153 379.696 181.488 370.236C197.542 362.366 214.014 357.226 229.979 354.978C244.915 352.873 260.09 354.085 274.747 357.64C274.907 357.679 275.067 357.709 275.227 357.747C246.728 350.922 220.115 336.805 198.288 315.272Z" fill="url(#paint19_linear_1290_2)"/>
<path d="M181.96 331.676C181.054 332.03 180.149 332.385 179.245 332.755C179.614 331.851 179.969 330.946 180.324 330.04L152.655 302.371C149.959 311.776 146.321 321.221 141.758 330.527C132.304 349.848 119.372 367.783 103.322 383.833L128.168 408.679C144.218 392.629 162.153 379.696 181.488 370.236C190.788 365.676 200.228 362.04 209.63 359.345L181.96 331.676Z" fill="url(#paint20_linear_1290_2)"/>
<path d="M18.9068 512C29.3488 512 37.8137 503.535 37.8137 493.093C37.8137 482.651 29.3488 474.186 18.9068 474.186C8.46486 474.186 -3.05176e-05 482.651 -3.05176e-05 493.093C-3.05176e-05 503.535 8.46486 512 18.9068 512Z" fill="url(#paint21_linear_1290_2)"/>
<path d="M27.7172 508.11L3.89017 484.283C-1.29709 479.095 -1.29709 470.686 3.89017 465.498L106.782 362.606C111.969 357.419 120.379 357.419 125.566 362.606L149.393 386.433C154.58 391.62 154.58 400.03 149.393 405.217L46.5016 508.11C41.3144 513.297 32.9035 513.297 27.7172 508.11Z" fill="url(#paint22_linear_1290_2)"/>
<path d="M125.566 362.606C120.379 357.419 111.969 357.419 106.782 362.606L24.7868 444.602V505.18L27.7162 508.11C32.9035 513.297 41.3134 513.297 46.5006 508.11L149.393 405.218C154.58 400.031 154.58 391.621 149.393 386.434L125.566 362.606Z" fill="url(#paint23_linear_1290_2)"/>
<path d="M125.566 362.606C120.379 357.419 111.969 357.419 106.782 362.606L58.4814 410.907V496.129L149.394 405.217C154.581 400.03 154.581 391.62 149.394 386.433L125.566 362.606Z" fill="url(#paint24_linear_1290_2)"/>
<path d="M125.566 362.606C120.379 357.419 111.969 357.419 106.782 362.606L92.175 377.213V462.435L149.394 405.217C154.581 400.03 154.581 391.62 149.394 386.433L125.566 362.606Z" fill="url(#paint25_linear_1290_2)"/>
<path d="M125.869 362.909V428.742L149.393 405.218C154.58 400.031 154.58 391.621 149.393 386.434L125.869 362.909Z" fill="url(#paint26_linear_1290_2)"/>
</g>
<defs>
<linearGradient id="paint0_linear_1290_2" x1="388.1" y1="123.846" x2="379.568" y2="132.377" gradientUnits="userSpaceOnUse">
<stop stop-color="#EAF6FF"/>
<stop offset="1" stop-color="#B3DAFE"/>
</linearGradient>
<linearGradient id="paint1_linear_1290_2" x1="345.98" y1="165.965" x2="336.039" y2="175.906" gradientUnits="userSpaceOnUse">
<stop stop-color="#EAF6FF"/>
<stop offset="1" stop-color="#B3DAFE"/>
</linearGradient>
<linearGradient id="paint2_linear_1290_2" x1="302.678" y1="209.268" x2="292.478" y2="219.467" gradientUnits="userSpaceOnUse">
<stop stop-color="#EAF6FF"/>
<stop offset="1" stop-color="#B3DAFE"/>
</linearGradient>
<linearGradient id="paint3_linear_1290_2" x1="259.375" y1="252.571" x2="249.198" y2="262.748" gradientUnits="userSpaceOnUse">
<stop stop-color="#EAF6FF"/>
<stop offset="1" stop-color="#B3DAFE"/>
</linearGradient>
<linearGradient id="paint4_linear_1290_2" x1="249.32" y1="99.8264" x2="259.734" y2="110.241" gradientUnits="userSpaceOnUse">
<stop stop-color="#EAF6FF"/>
<stop offset="1" stop-color="#B3DAFE"/>
</linearGradient>
<linearGradient id="paint5_linear_1290_2" x1="290.493" y1="140.999" x2="305.727" y2="156.234" gradientUnits="userSpaceOnUse">
<stop stop-color="#EAF6FF"/>
<stop offset="1" stop-color="#B3DAFE"/>
</linearGradient>
<linearGradient id="paint6_linear_1290_2" x1="334.505" y1="185.012" x2="348.262" y2="198.769" gradientUnits="userSpaceOnUse">
<stop stop-color="#EAF6FF"/>
<stop offset="1" stop-color="#B3DAFE"/>
</linearGradient>
<linearGradient id="paint7_linear_1290_2" x1="379.228" y1="229.734" x2="391.805" y2="242.311" gradientUnits="userSpaceOnUse">
<stop stop-color="#EAF6FF"/>
<stop offset="1" stop-color="#B3DAFE"/>
</linearGradient>
<linearGradient id="paint8_linear_1290_2" x1="409.633" y1="102.312" x2="401.111" y2="110.834" gradientUnits="userSpaceOnUse">
<stop stop-color="#EAF6FF"/>
<stop offset="1" stop-color="#B3DAFE"/>
</linearGradient>
<linearGradient id="paint9_linear_1290_2" x1="367.513" y1="144.432" x2="358.758" y2="153.187" gradientUnits="userSpaceOnUse">
<stop stop-color="#EAF6FF"/>
<stop offset="1" stop-color="#B3DAFE"/>
</linearGradient>
<linearGradient id="paint10_linear_1290_2" x1="324.448" y1="187.498" x2="314.204" y2="197.742" gradientUnits="userSpaceOnUse">
<stop stop-color="#EAF6FF"/>
<stop offset="1" stop-color="#B3DAFE"/>
</linearGradient>
<linearGradient id="paint11_linear_1290_2" x1="281.855" y1="230.091" x2="271.669" y2="240.277" gradientUnits="userSpaceOnUse">
<stop stop-color="#EAF6FF"/>
<stop offset="1" stop-color="#B3DAFE"/>
</linearGradient>
<linearGradient id="paint12_linear_1290_2" x1="269.433" y1="119.939" x2="283.402" y2="133.908" gradientUnits="userSpaceOnUse">
<stop stop-color="#EAF6FF"/>
<stop offset="1" stop-color="#B3DAFE"/>
</linearGradient>
<linearGradient id="paint13_linear_1290_2" x1="314.392" y1="164.899" x2="326.025" y2="176.532" gradientUnits="userSpaceOnUse">
<stop stop-color="#EAF6FF"/>
<stop offset="1" stop-color="#B3DAFE"/>
</linearGradient>
<linearGradient id="paint14_linear_1290_2" x1="357.931" y1="208.438" x2="367.895" y2="218.402" gradientUnits="userSpaceOnUse">
<stop stop-color="#EAF6FF"/>
<stop offset="1" stop-color="#B3DAFE"/>
</linearGradient>
<linearGradient id="paint15_linear_1290_2" x1="398.631" y1="249.138" x2="410.012" y2="260.518" gradientUnits="userSpaceOnUse">
<stop stop-color="#EAF6FF"/>
<stop offset="1" stop-color="#B3DAFE"/>
</linearGradient>
<linearGradient id="paint16_linear_1290_2" x1="271.581" y1="31.8036" x2="336.18" y2="455.602" gradientUnits="userSpaceOnUse">
<stop stop-color="#FE9738"/>
<stop offset="1" stop-color="#EF4424"/>
</linearGradient>
<linearGradient id="paint17_linear_1290_2" x1="313.15" y1="452.135" x2="353.614" y2="-171.85" gradientUnits="userSpaceOnUse">
<stop stop-color="#FE9738"/>
<stop offset="1" stop-color="#EF4424"/>
</linearGradient>
<linearGradient id="paint18_linear_1290_2" x1="334.447" y1="267.002" x2="343.675" y2="479.256" gradientUnits="userSpaceOnUse">
<stop stop-color="#EF4424" stop-opacity="0"/>
<stop offset="1" stop-color="#883F2E"/>
</linearGradient>
<linearGradient id="paint19_linear_1290_2" x1="167.233" y1="362.435" x2="84.1775" y2="351.787" gradientUnits="userSpaceOnUse">
<stop stop-color="#EF4424" stop-opacity="0"/>
<stop offset="1" stop-color="#883F2E"/>
</linearGradient>
<linearGradient id="paint20_linear_1290_2" x1="157.867" y1="354.133" x2="126.913" y2="385.086" gradientUnits="userSpaceOnUse">
<stop stop-color="#EF4424" stop-opacity="0"/>
<stop offset="1" stop-color="#883F2E"/>
</linearGradient>
<linearGradient id="paint21_linear_1290_2" x1="5.07279" y1="493.093" x2="38.3407" y2="493.093" gradientUnits="userSpaceOnUse">
<stop stop-color="#FE9738"/>
<stop offset="1" stop-color="#EF4424"/>
</linearGradient>
<linearGradient id="paint22_linear_1290_2" x1="66.1002" y1="424.817" x2="86.6806" y2="445.398" gradientUnits="userSpaceOnUse">
<stop stop-color="#5A5A5A"/>
<stop offset="1" stop-color="#444444"/>
</linearGradient>
<linearGradient id="paint23_linear_1290_2" x1="42.9949" y1="461.214" x2="-4.69135" y2="497.857" gradientUnits="userSpaceOnUse">
<stop stop-color="#433F43" stop-opacity="0"/>
<stop offset="1" stop-color="#1A1A1A"/>
</linearGradient>
<linearGradient id="paint24_linear_1290_2" x1="78.9283" y1="435.502" x2="32.2459" y2="486.702" gradientUnits="userSpaceOnUse">
<stop stop-color="#433F43" stop-opacity="0"/>
<stop offset="1" stop-color="#1A1A1A"/>
</linearGradient>
<linearGradient id="paint25_linear_1290_2" x1="103.266" y1="411.955" x2="59.0938" y2="464.159" gradientUnits="userSpaceOnUse">
<stop stop-color="#433F43" stop-opacity="0"/>
<stop offset="1" stop-color="#1A1A1A"/>
</linearGradient>
<linearGradient id="paint26_linear_1290_2" x1="142.363" y1="378.399" x2="96.1827" y2="434.117" gradientUnits="userSpaceOnUse">
<stop stop-color="#433F43" stop-opacity="0"/>
<stop offset="1" stop-color="#1A1A1A"/>
</linearGradient>
<clipPath id="clip0_1290_2">
<rect width="512" height="512" fill="white"/>
</clipPath>
</defs>
</svg>
